<?xml version="1.0" standalone="no"?>
<!DOCTYPE svg PUBLIC "-//W3C//DTD SVG 20010904//EN"
 "http://www.w3.org/TR/2001/REC-SVG-20010904/DTD/svg10.dtd">
<svg version="1.0" xmlns="http://www.w3.org/2000/svg"
 width="512.000000pt" height="512.000000pt" viewBox="0 0 512.000000 512.000000"
 preserveAspectRatio="xMidYMid meet">
<metadata>
Created by potrace 1.14, written by Peter Selinger 2001-2017
</metadata>
<g transform="translate(0.000000,512.000000) scale(0.100000,-0.100000)"
fill="#000000" stroke="none">
<path d="M628 4964 c-4 -3 -12 -7 -20 -8 -69 -14 -88 -19 -88 -25 0 -4 -10 -7
-22 -8 -11 -1 -24 -7 -28 -13 -4 -7 -9 -11 -11 -10 -5 2 -48 -17 -74 -33 -61
-37 -125 -83 -125 -89 0 -5 -5 -8 -12 -8 -14 0 -188 -174 -188 -189 0 -6 -4
-11 -8 -11 -16 0 -45 -79 -44 -116 2 -40 37 -104 57 -104 7 0 15 -4 17 -10 2
-5 25 -12 51 -15 38 -5 56 -1 87 16 22 13 40 26 40 31 0 22 139 163 208 212
55 38 148 84 186 92 11 2 37 7 56 10 85 16 134 68 133 143 0 86 -60 141 -155
141 -30 0 -57 -3 -60 -6z"/>
<path d="M4355 4959 c-63 -36 -93 -103 -75 -166 17 -61 66 -103 123 -103 49
-1 188 -60 233 -99 12 -11 24 -18 26 -15 3 2 42 -32 88 -76 45 -44 79 -80 75
-80 -4 0 13 -20 38 -45 37 -38 52 -46 92 -50 86 -9 144 39 153 126 4 39 0 56
-21 91 -31 53 -176 208 -194 208 -7 0 -13 4 -13 8 0 5 -18 21 -41 38 -22 16
-46 34 -52 39 -28 24 -163 91 -192 97 -11 1 -22 6 -25 10 -15 19 -187 33 -215
17z"/>
<path d="M1087 4544 c-3 -3 -78 -16 -94 -17 -7 0 -13 -4 -13 -9 0 -5 -4 -7 -9
-4 -5 3 -25 -1 -44 -9 -19 -8 -37 -11 -41 -8 -3 4 -6 0 -6 -7 0 -7 -3 -11 -6
-7 -11 11 -219 -103 -309 -170 -81 -61 -246 -216 -285 -268 -8 -12 -31 -41
-50 -65 -46 -59 -75 -103 -72 -112 1 -5 -2 -8 -7 -8 -16 0 -72 -113 -76 -153
-4 -42 18 -105 40 -113 8 -4 13 -9 10 -13 -8 -14 60 -31 107 -27 36 3 54 11
78 36 16 17 30 34 30 39 0 4 31 55 70 113 62 93 193 240 275 308 60 50 103 79
109 73 3 -4 6 -2 6 4 0 6 39 30 88 53 135 66 111 58 237 81 87 15 124 41 144
101 32 98 -38 192 -139 186 -22 -1 -42 -3 -43 -4z"/>
<path d="M3930 4542 c0 -5 -10 -12 -23 -16 -37 -9 -70 -78 -63 -133 9 -73 49
-114 126 -127 99 -16 155 -33 234 -72 86 -41 132 -67 155 -88 10 -9 22 -16 27
-16 6 0 21 -13 34 -30 14 -16 29 -29 34 -30 32 -1 296 -322 296 -359 0 -6 4
-11 9 -11 5 0 13 -9 16 -20 4 -11 16 -31 28 -44 85 -90 226 -42 243 82 4 32
-1 51 -31 108 -20 38 -43 76 -51 85 -8 8 -14 19 -14 23 0 4 -6 14 -12 21 -27
30 -38 44 -38 50 0 3 -8 13 -17 24 -10 10 -28 32 -41 49 -44 58 -177 189 -247
243 -38 30 -71 57 -73 61 -2 5 -10 8 -18 8 -8 0 -14 5 -14 10 0 6 -5 10 -11
10 -6 0 -29 12 -52 28 -23 15 -49 28 -57 30 -8 2 -22 10 -31 18 -9 8 -19 11
-22 7 -4 -3 -7 -1 -7 6 0 7 -4 9 -10 6 -5 -3 -10 -1 -10 4 0 6 -3 10 -7 9 -9
-2 -82 21 -98 31 -5 3 -17 6 -25 7 -8 0 -22 4 -30 7 -45 19 -200 34 -200 19z"/>
<path d="M1464 4120 c-3 -2 -22 -5 -42 -6 -91 -5 -112 -8 -112 -16 0 -4 -8 -7
-17 -5 -26 3 -163 -35 -163 -46 0 -4 -8 -7 -18 -5 -11 2 -26 -3 -35 -11 -10
-7 -17 -11 -17 -8 0 8 -174 -84 -178 -94 -2 -5 -8 -9 -13 -9 -34 0 -326 -271
-313 -291 3 -5 1 -9 -4 -9 -35 0 -228 -391 -205 -414 4 -3 1 -6 -6 -6 -7 0
-10 -4 -7 -8 3 -4 0 -28 -6 -53 -18 -79 -36 -255 -28 -279 1 -3 3 -34 5 -70 4
-64 7 -90 19 -140 3 -14 8 -36 10 -50 31 -182 98 -399 175 -562 17 -37 32 -70
32 -73 0 -2 15 -32 34 -66 19 -33 35 -65 35 -70 0 -5 5 -9 10 -9 6 0 10 -8 10
-18 0 -10 9 -28 20 -40 11 -12 20 -24 20 -27 0 -10 124 -200 132 -203 5 -2 8
-10 8 -17 0 -7 4 -15 8 -17 4 -2 27 -31 51 -65 24 -35 48 -63 52 -63 5 0 9 -5
9 -11 0 -10 105 -140 185 -229 92 -102 353 -360 364 -360 7 0 9 -5 6 -10 -3
-6 -2 -10 2 -10 5 0 25 -15 45 -33 20 -17 49 -42 65 -54 15 -12 38 -30 50 -40
87 -74 188 -150 263 -199 41 -27 79 -53 85 -57 27 -22 147 -96 164 -102 10 -3
29 -14 41 -25 12 -11 26 -17 30 -15 5 3 10 2 12 -3 2 -6 100 -58 128 -67 38
-14 70 -31 70 -38 0 -4 4 -6 9 -2 5 3 12 1 16 -5 3 -5 14 -10 23 -10 9 0 30
-7 46 -15 23 -12 32 -13 44 -3 8 7 16 12 16 10 2 -5 55 16 121 48 33 16 62 29
65 28 3 -1 25 11 50 27 25 16 51 28 57 28 7 0 13 3 13 7 0 3 17 14 38 24 20
10 74 42 120 72 45 30 87 54 92 54 4 0 10 4 12 8 2 5 32 28 68 52 36 24 70 48
75 52 6 5 35 27 65 51 30 23 57 45 58 49 2 5 11 8 19 8 9 0 13 3 9 7 -3 4 2
12 12 17 71 40 392 344 537 510 94 108 99 113 115 133 8 10 31 38 50 63 19 25
38 50 43 55 34 42 145 201 175 250 19 33 38 62 41 65 7 6 23 33 69 120 20 36
40 68 45 71 5 3 7 8 6 10 -2 2 11 32 28 65 18 34 29 65 26 68 -4 3 -2 6 4 6 6
0 13 9 16 20 3 11 6 23 7 25 0 3 11 28 24 57 30 68 94 267 102 315 3 21 9 45
14 53 4 8 6 23 5 33 -2 9 0 17 3 17 4 0 7 10 8 23 0 12 4 36 7 52 27 121 28
345 3 468 -3 15 -8 37 -10 50 -3 12 -9 37 -15 55 -5 17 -7 32 -4 32 3 0 1 6
-4 13 -6 6 -16 30 -23 52 -15 49 -96 214 -116 236 -8 8 -14 19 -14 23 0 7 -16
30 -80 110 -70 88 -261 248 -340 285 -19 9 -37 18 -40 22 -5 5 -82 43 -90 44
-3 0 -18 5 -35 12 -58 22 -70 26 -83 29 -8 1 -21 6 -30 10 -20 8 -38 13 -72
19 -14 2 -25 4 -25 5 0 3 -81 13 -112 13 -18 1 -33 4 -33 7 0 9 -85 5 -92 -5
-5 -7 -8 -6 -8 0 0 10 -90 15 -90 5 0 -3 -21 -6 -48 -7 -75 -4 -76 -4 -92 -10
-15 -6 -25 -8 -72 -17 -13 -3 -24 -5 -25 -7 -4 -2 -12 -4 -55 -13 -21 -5 -38
-12 -38 -17 0 -5 -3 -8 -7 -7 -5 0 -16 -2 -26 -5 -25 -10 -46 -16 -52 -16 -3
0 -13 -7 -21 -16 -9 -8 -24 -15 -34 -15 -10 0 -20 -4 -22 -8 -1 -5 -30 -23
-63 -42 -33 -18 -62 -36 -65 -39 -3 -4 -23 -20 -45 -36 -42 -32 -148 -125
-141 -125 2 0 -13 -17 -33 -38 -20 -21 -46 -51 -58 -67 l-22 -28 -35 38 c-20
21 -36 40 -36 42 0 13 -115 122 -180 171 -41 32 -77 59 -80 62 -3 3 -30 18
-60 35 -104 56 -165 83 -172 79 -5 -3 -8 -1 -8 5 0 5 -15 13 -32 17 -18 4 -36
9 -40 10 -5 1 -10 3 -13 4 -3 1 -8 3 -12 5 -5 1 -16 5 -25 9 -9 4 -22 5 -28 1
-5 -3 -10 -2 -10 4 0 5 -8 9 -17 9 -10 0 -36 4 -58 9 -22 5 -59 9 -82 8 -24 0
-43 2 -43 5 0 7 -160 7 -166 0z"/>
</g>
</svg>
